<svg width="869" height="869" viewBox="0 0 869 869" fill="none" xmlns="http://www.w3.org/2000/svg">
<rect width="869" height="869" fill="black"/>
<path d="M252.23 406.579C261.153 405.981 271.659 406.178 280.064 406.271C328.98 406.816 381.293 401.607 364.39 470.126C356.38 502.594 358.197 528.566 322.066 545.688C302.338 556.958 240.376 554.74 216 554.71C216.54 544.403 239.454 414.615 241.713 411.294C244.169 407.681 248.257 407.148 252.23 406.579ZM257.111 526.139C273.548 524.096 281.367 527.363 298.271 521.177C309.55 514.099 314.87 505.128 316.823 492.08C321.404 461.493 339.052 433.331 290.942 437.593C288.284 437.829 282.213 437.683 279.106 437.719C276.343 461.51 269.974 488.434 264.767 511.952C263.717 516.69 260.331 522.416 257.111 526.139Z" fill="url(#paint0_linear_2073_3)"/>
<path d="M568.691 498.731C572.202 482.044 573.115 462.065 588.696 451.757C609.056 438.291 631.894 442.107 654.922 441.716C661.848 441.598 668.54 441.835 675.335 443.131C711.034 449.948 700.545 474.451 695.713 498.129C692.802 515.157 692.029 533.922 676.169 544.553C663.873 552.797 649.074 555.512 633.849 554.95C613.94 554.214 580.675 559.442 567.258 541.015C559.167 529.904 566.502 511.219 568.691 498.731ZM650.543 513.471C652.324 503.962 659.754 476.47 656.904 469.524C653.228 465.397 623.482 466 620.597 469.067C614.045 476.022 609.517 507.14 608.492 516.219C608.17 518.15 606.823 524.708 608.014 525.969C612.68 530.234 621.944 529.75 627.862 529.599C644.746 529.172 647.075 529.597 650.543 513.471Z" fill="#B6DA61"/>
<path d="M650.543 513.47C658.503 517.782 688.831 499.875 695.713 498.128C692.802 515.156 692.029 533.922 676.169 544.552C663.873 552.796 649.074 555.511 633.849 554.949C613.94 554.213 580.675 559.441 567.258 541.014C559.167 529.903 566.502 511.218 568.691 498.73C568.752 500.804 568.344 501.899 569.795 503.074C578.668 510.233 597.733 514.667 608.492 516.218C608.17 518.149 606.823 524.707 608.014 525.969C612.68 530.233 621.944 529.749 627.862 529.598C644.746 529.171 647.075 529.596 650.543 513.47Z" fill="#9FC053"/>
<path d="M418.752 441.794C419.263 441.674 419.313 441.649 419.92 441.58C426.752 440.799 434.208 441.403 441.082 441.498C456.058 441.704 476.522 439.926 489.164 449.482C493.857 453.03 496.463 458.419 497.266 464.174C498.371 472.086 489.031 516.995 485.889 526.313C484.558 530.307 482.565 534.049 479.991 537.381C471.667 548.195 460.061 552.325 446.992 553.957C425.749 556.72 370.57 560.051 367.185 532.07C366.229 524.037 368.634 515.625 370.214 507.843C377.489 472.001 375.035 447.904 418.752 441.794ZM439.062 528.915C441.954 527.4 445.118 526.08 445.996 522.551C449.581 508.094 452.205 493.213 454.971 478.583C455.827 474.048 456.919 467.865 451.074 467.298C442.729 466.487 433.182 466.644 424.797 467.141C421.118 469.237 418.803 470.48 417.909 475.014C416.373 482.805 406.899 521.839 409.705 526.815C414.699 530.889 430.28 529.85 436.546 529.218C437.387 529.139 438.226 529.039 439.062 528.915Z" fill="#B6DA61"/>
<path d="M525.132 441.883C537.742 441.843 551.685 441.549 564.147 442.27C557.733 468.433 553.553 495.209 547.62 521.502C545.304 531.764 544.193 544.592 540.902 554.464C538.888 560.554 535.79 566.232 531.759 571.221C519.318 586.462 499.219 592.528 480.378 594.548C466.322 595.732 455.76 594.876 441.877 593.787C443.463 586.06 447.675 575.004 450.341 567.272C469.553 567.538 493.9 571.168 499.755 546.799C507.896 512.916 513.795 476.566 521.493 442.588C521.612 442.06 524.457 441.953 525.132 441.883Z" fill="#B6DA61"/>
<path d="M439.403 316.106C444.478 315.907 453.804 314.61 457.265 318.835C456.272 330.332 451.951 346.764 449.976 358.671C447.568 368.854 446.371 380.47 443.568 390.466C436.51 415.627 392.233 416.58 373.163 410.445C373.426 404.972 374.314 401.092 375.455 395.818C380.21 396.699 383.144 396.998 387.88 397.353C393.701 397.986 405.351 398.811 410.488 396.216C415.877 393.496 416.64 390.672 418.421 385.518C397.211 390.729 362.466 389.633 373.197 358.862C376.638 348.996 374.981 333.728 383.9 325.474C397.23 313.137 422.083 316.27 439.403 316.106ZM405.693 336.337C403.906 342.16 399.17 363.163 400.148 368.56C402.586 372.298 408.278 371.562 412.287 371.502C422.669 369.788 421.949 367.005 424.007 357.423C425.82 348.986 427.142 340.286 429.164 331.898C424.843 331.744 420.396 331.512 416.085 331.624C411.01 332.333 409.684 333.071 405.693 336.337Z" fill="white"/>
<path d="M476.948 316.5C483.02 316.028 490.462 316.117 496.611 316.158C507.244 316.121 540.866 313.608 538.31 331.58C537.076 340.269 530.923 381.942 526.356 386.741C520.79 388.255 510.012 387.673 504.039 387.525C502.295 386.336 503.436 386.589 502.734 383.49C498.993 383.69 492.203 386.407 488.279 387.283C485.096 387.994 482.296 388.244 479.065 388.573C473.056 388.81 464.276 387.449 459.903 383.05C452.276 375.375 456.905 358.835 463.785 352.209C475.164 341.25 495.801 343.014 510.621 343.046C511.347 339.434 512.625 336.32 510.202 333.256C506.054 331.473 474.501 332.057 468.01 332.019C469.606 324.372 469.1 319.674 476.948 316.5ZM489.911 373.164C495.665 373.082 499.196 372.682 504.895 371.951C505.945 366.686 507.069 361.338 508.057 356.072L501.089 355.818C495.249 355.99 490.101 355.52 485.832 360.247C482.701 363.714 482.126 367.855 485.002 371.595C487.089 372.915 487.437 372.938 489.911 373.164Z" fill="white"/>
<path d="M284.69 290L297.14 290.123C293.162 312.147 288.013 334.154 283.954 356.186C283.253 359.99 282.382 363.821 281.141 367.487C295.915 367.726 310.788 367.397 325.624 367.612C322.121 386.533 322.887 387.994 302.78 387.618L246.81 387.583C246.694 378.099 250.671 359.023 252.555 349.194C256.022 330.76 259.726 312.373 263.665 294.036C265.119 292.667 267.011 291.409 268.653 290.231C273.843 290.026 279.46 290.06 284.69 290Z" fill="white"/>
<path d="M343.601 316.351C351.919 315.978 362.197 316.298 370.657 316.334C369.232 327.421 365.767 340.515 363.906 351.649C363.001 357.056 358.592 383.001 355.819 386.168C350.615 388.311 335.431 387.53 329.357 387.47C333.655 363.676 338.404 339.965 343.601 316.351Z" fill="white"/>
<path d="M545.423 403.307C550.469 402.55 567.779 402.92 573.636 403.001C572.645 406.905 571.568 411.436 570.716 415.359C567.805 428.75 564.32 430.129 551.746 429.673C547.343 429.562 526.787 430.159 524.351 429.097C522.168 424.352 527.278 413.474 530.045 409.428C532.897 405.258 540.83 404.069 545.423 403.307Z" fill="#B6DA61"/>
<path d="M357.293 291.827C363.7 291.365 370.611 291.481 377.074 291.47C376.327 296.562 375.923 304.664 371.758 308.111C370.532 309.126 367.597 309.091 365.989 309.148L344.379 309.158C346.363 299.367 346.585 294.322 357.293 291.827Z" fill="white"/>
<defs>
<linearGradient id="paint0_linear_2073_3" x1="296.233" y1="551.153" x2="284.846" y2="404.921" gradientUnits="userSpaceOnUse">
<stop stop-color="#A7C957"/>
<stop offset="1" stop-color="#CAF06D"/>
</linearGradient>
</defs>
</svg>
