<svg width="200" height="126" viewBox="0 0 200 126" fill="none" xmlns="http://www.w3.org/2000/svg">
<path d="M14.9415 48.0776C18.6213 47.8306 22.9541 47.912 26.4204 47.9503C46.5935 48.175 68.1671 46.0269 61.1963 74.2843C57.8931 87.674 58.6425 98.3852 43.7418 105.446C35.6059 110.094 10.0529 109.179 0 109.167C0.222553 104.916 9.67262 51.3915 10.604 50.0218C11.6172 48.532 13.303 48.3119 14.9415 48.0776ZM16.9541 97.3843C23.7329 96.5418 26.9576 97.8889 33.9287 95.338C38.5805 92.419 40.7741 88.7194 41.5798 83.3384C43.4688 70.7242 50.7471 59.1099 30.9062 60.8677C29.8103 60.9648 27.3066 60.9046 26.0251 60.9197C24.8858 70.731 22.2592 81.8346 20.1115 91.5334C19.6785 93.4876 18.2823 95.849 16.9541 97.3843Z" fill="url(#paint0_linear_2092_2)"/>
<path d="M145.451 86.0816C146.899 79.2 147.275 70.9605 153.701 66.7094C162.098 61.156 171.516 62.7296 181.013 62.5684C183.869 62.52 186.629 62.6175 189.431 63.1522C204.153 65.9633 199.828 76.0685 197.835 85.8336C196.635 92.856 196.316 100.595 189.775 104.979C184.704 108.379 178.601 109.498 172.322 109.266C164.112 108.963 150.393 111.119 144.86 103.52C141.523 98.9377 144.548 91.2318 145.451 86.0816ZM179.207 92.1604C179.941 88.239 183.005 76.9014 181.83 74.0365C180.314 72.3345 168.047 72.5833 166.857 73.8483C164.155 76.7164 162.288 89.5496 161.865 93.2939C161.732 94.0902 161.177 96.7946 161.668 97.3149C163.592 99.0735 167.412 98.8739 169.853 98.8119C176.816 98.6355 177.777 98.8108 179.207 92.1604Z" fill="#B6DA61"/>
<path d="M179.207 92.1598C182.489 93.9381 194.997 86.5533 197.835 85.833C196.635 92.8554 196.316 100.594 189.775 104.978C184.704 108.378 178.601 109.498 172.322 109.266C164.112 108.962 150.393 111.118 144.86 103.519C141.523 98.9371 144.548 91.2313 145.451 86.081C145.476 86.9365 145.308 87.388 145.906 87.8726C149.565 90.8249 157.428 92.6537 161.865 93.2934C161.732 94.0897 161.177 96.794 161.668 97.3144C163.592 99.0729 167.412 98.8733 169.853 98.8113C176.816 98.635 177.777 98.8102 179.207 92.1598Z" fill="#9FC053"/>
<path d="M83.6154 62.6007C83.8261 62.5509 83.8469 62.5409 84.0974 62.5122C86.915 62.19 89.9898 62.4394 92.8246 62.4785C99.0005 62.5634 107.44 61.8302 112.654 65.7713C114.589 67.2342 115.664 69.4568 115.995 71.83C116.451 75.0931 112.599 93.6137 111.303 97.4566C110.754 99.1037 109.932 100.647 108.871 102.021C105.438 106.481 100.652 108.184 95.262 108.857C86.501 109.996 63.7451 111.37 62.3492 99.8308C61.955 96.5176 62.9466 93.0485 63.5982 89.8392C66.5985 75.0579 65.5865 65.1205 83.6154 62.6007ZM91.9914 98.5295C93.1841 97.9049 94.4889 97.3602 94.8513 95.9051C96.3296 89.9428 97.4119 83.8059 98.5522 77.7723C98.9056 75.9023 99.3557 73.3524 96.9452 73.1184C93.5037 72.784 89.5666 72.8489 86.1086 73.0539C84.5912 73.9179 83.6365 74.4308 83.2681 76.3004C82.6345 79.5136 78.7275 95.6113 79.8847 97.6633C81.9443 99.3438 88.3696 98.9152 90.9539 98.6546C91.3008 98.622 91.6466 98.5804 91.9914 98.5295Z" fill="#B6DA61"/>
<path d="M127.487 62.6369C132.687 62.6205 138.438 62.4993 143.577 62.7964C140.932 73.5865 139.208 84.6288 136.761 95.4723C135.806 99.704 135.348 104.994 133.99 109.066C133.16 111.577 131.882 113.919 130.22 115.976C125.089 122.262 116.8 124.764 109.03 125.596C103.234 126.085 98.8776 125.732 93.1525 125.283C93.8066 122.096 95.5433 117.537 96.6431 114.348C104.566 114.457 114.607 115.955 117.021 105.905C120.379 91.9311 122.812 76.9405 125.986 62.9276C126.035 62.7101 127.208 62.666 127.487 62.6369Z" fill="#B6DA61"/>
<path d="M92.1318 10.7661C94.2251 10.6841 98.0709 10.1494 99.4983 11.8914C99.089 16.6331 97.3068 23.4097 96.4926 28.3202C95.4995 32.5197 95.0057 37.3101 93.8495 41.4326C90.9388 51.809 72.6791 52.2018 64.8145 49.6717C64.9231 47.415 65.2889 45.8148 65.7598 43.6394C67.7205 44.0028 68.9308 44.1261 70.884 44.2727C73.2844 44.5336 78.0888 44.8741 80.2075 43.8039C82.4298 42.6819 82.7445 41.5175 83.4792 39.3919C74.7319 41.5408 60.4028 41.0889 64.8284 28.3991C66.2476 24.33 65.5642 18.0337 69.2426 14.6294C74.7397 9.54155 84.9894 10.8339 92.1318 10.7661ZM78.23 19.1095C77.4932 21.511 75.54 30.1727 75.9432 32.3982C76.9488 33.9399 79.2958 33.6364 80.9494 33.6117C85.2309 32.9049 84.9338 31.7571 85.7828 27.8056C86.5304 24.3261 87.0755 20.738 87.9094 17.2789C86.1276 17.2151 84.2934 17.1198 82.5155 17.1657C80.4225 17.4581 79.876 17.7627 78.23 19.1095Z" fill="white"/>
<path d="M107.616 10.9289C110.12 10.7343 113.189 10.7709 115.725 10.7881C120.11 10.7727 133.976 9.73625 132.922 17.1479C132.413 20.7313 129.875 37.9177 127.992 39.8966C125.696 40.5209 121.252 40.2808 118.788 40.2199C118.069 39.7296 118.539 39.8339 118.25 38.5559C116.707 38.6384 113.907 39.759 112.289 40.1203C110.976 40.4134 109.821 40.5166 108.489 40.6521C106.011 40.7499 102.39 40.1887 100.586 38.3743C97.4409 35.2094 99.35 28.388 102.187 25.6554C106.88 21.1359 115.391 21.8634 121.502 21.8767C121.802 20.3873 122.329 19.1028 121.33 17.8392C119.619 17.1038 106.606 17.345 103.93 17.3292C104.588 14.1755 104.379 12.2381 107.616 10.9289ZM112.962 34.2973C115.335 34.2637 116.791 34.0988 119.141 33.797C119.574 31.626 120.038 29.4205 120.445 27.2488L117.571 27.1438C115.163 27.2147 113.04 27.0212 111.28 28.9704C109.988 30.4003 109.751 32.108 110.937 33.6505C111.798 34.1948 111.942 34.2042 112.962 34.2973Z" fill="white"/>
<path d="M28.328 0L33.4625 0.0508891C31.8219 9.13362 29.6985 18.2092 28.0245 27.2952C27.7353 28.8641 27.3762 30.4439 26.8644 31.9559C32.9572 32.0544 39.0908 31.919 45.2094 32.0075C43.7645 39.8104 44.0805 40.4129 35.7884 40.2581L12.706 40.2437C12.6583 36.3324 14.2986 28.4653 15.0752 24.4116C16.5051 16.8097 18.0325 9.22681 19.6571 1.66431C20.257 1.09987 21.0372 0.580939 21.7142 0.0953364C23.8548 0.0107591 26.1713 0.0247281 28.328 0Z" fill="white"/>
<path d="M52.6232 10.8668C56.0536 10.713 60.2921 10.8449 63.7809 10.8596C63.1936 15.4321 61.7643 20.8318 60.9967 25.4237C60.6236 27.6536 58.8056 38.3533 57.6616 39.6592C55.5157 40.5433 49.2537 40.2212 46.7487 40.1964C48.5212 30.3837 50.4797 20.6053 52.6232 10.8668Z" fill="white"/>
<path d="M135.855 46.7281C137.936 46.416 145.075 46.5683 147.49 46.6016C147.082 48.2118 146.637 50.0804 146.286 51.6985C145.085 57.2207 143.648 57.7895 138.463 57.6013C136.647 57.5558 128.17 57.8017 127.165 57.3637C126.265 55.407 128.372 50.9208 129.513 49.2522C130.689 47.5327 133.961 47.0421 135.855 46.7281Z" fill="#B6DA61"/>
<path d="M58.2698 0.753956C60.9117 0.563298 63.7619 0.611328 66.4272 0.606669C66.1193 2.70641 65.9527 6.04792 64.235 7.46961C63.7293 7.88784 62.5191 7.8735 61.8561 7.89715L52.9439 7.9011C53.7621 3.86325 53.8535 1.78286 58.2698 0.753956Z" fill="white"/>
<defs>
<linearGradient id="paint0_linear_2092_2" x1="33.0884" y1="107.7" x2="28.3922" y2="47.3937" gradientUnits="userSpaceOnUse">
<stop stop-color="#A7C957"/>
<stop offset="1" stop-color="#CAF06D"/>
</linearGradient>
</defs>
</svg>
